<?xml version="1.0" encoding="UTF-8" standalone="no"?>
<svg
   xmlns:dc="http://purl.org/dc/elements/1.1/"
   xmlns:cc="http://creativecommons.org/ns#"
   xmlns:rdf="http://www.w3.org/1999/02/22-rdf-syntax-ns#"
   xmlns:svg="http://www.w3.org/2000/svg"
   xmlns="http://www.w3.org/2000/svg"
   xmlns:sodipodi="http://sodipodi.sourceforge.net/DTD/sodipodi-0.dtd"
   xmlns:inkscape="http://www.inkscape.org/namespaces/inkscape"
   width="120"
   height="56"
   id="svg2"
   version="1.1"
   inkscape:version="0.48.5 r10040"
   sodipodi:docname="logo.svg"
   inkscape:export-filename="/home/giovanni/progetti/subotto/website/images/logo.png"
   inkscape:export-xdpi="90"
   inkscape:export-ydpi="90">
  <metadata
     id="metadata36">
    <rdf:RDF>
      <cc:Work
         rdf:about="">
        <dc:format>image/svg+xml</dc:format>
        <dc:type
           rdf:resource="http://purl.org/dc/dcmitype/StillImage" />
        <dc:title></dc:title>
      </cc:Work>
    </rdf:RDF>
  </metadata>
  <defs
     id="defs34" />
  <sodipodi:namedview
     pagecolor="#ffffff"
     bordercolor="#666666"
     borderopacity="1"
     objecttolerance="10"
     gridtolerance="10"
     guidetolerance="10"
     inkscape:pageopacity="0"
     inkscape:pageshadow="2"
     inkscape:window-width="1920"
     inkscape:window-height="1016"
     id="namedview32"
     showgrid="false"
     inkscape:zoom="8.1729759"
     inkscape:cx="65.715968"
     inkscape:cy="22.096515"
     inkscape:window-x="0"
     inkscape:window-y="27"
     inkscape:window-maximized="1"
     inkscape:current-layer="svg2" />
  <g
     style="fill:#3771c8"
     transform="matrix(1.0449831,0,0,1.0449831,-239.22257,-37.24081)"
     id="g8">
    <path
       d="m 228.92483,52.079119 c 0,1.283007 1.28201,2.950918 3.89352,2.950918 2.51653,0 3.75106,-1.699986 3.75106,-2.822618 0,-1.603758 1.66187,-2.373565 3.37122,-2.373565 1.66186,0 3.37121,0.705657 3.37121,1.924513 0,0.93018 -0.47482,1.924512 -1.42446,2.758467 l -11.53809,10.552743 c -0.66475,0.609429 -1.0446,1.283009 -1.0446,1.892437 0,1.635834 1.42445,2.469791 4.41581,2.469791 l 14.05463,0 c 2.42158,0 3.65611,-0.898107 3.65611,-2.533941 0,-1.603759 -1.13957,-2.469792 -3.60862,-2.469792 l -7.64458,0 c 3.18128,-2.886764 4.27336,-3.816951 7.35969,-6.575416 2.13668,-1.956585 3.46617,-4.29808 3.46617,-6.318816 0,-4.105621 -5.46041,-6.767868 -10.92083,-6.767868 -5.60285,0 -11.15824,2.790547 -11.15824,7.313147"
       id="path10"
       inkscape:connector-curvature="0" />
    <path
       d="m 262.6414,66.673337 c 0,1.828285 1.42445,2.758468 3.75107,2.758468 2.46905,0 3.79855,-0.930183 3.79855,-2.758468 l 0,-2.662242 c 2.32661,0 3.51365,-0.833956 3.51365,-2.437716 0,-1.699984 -1.18704,-2.533941 -3.56114,-2.533941 l 0,-10.135764 c 0,-2.213187 -2.13668,-3.528273 -4.84315,-3.528273 -2.13668,0 -3.79855,0.705656 -5.03307,2.052813 l -11.0158,11.996126 0.095,-0.09622 c -0.71223,0.641504 -0.99712,1.347159 -0.99712,1.956588 0,1.475459 1.47193,2.758467 4.32085,2.758467 l 9.97119,0 0,2.630167 m 0,-12.798006 0,5.164108 -4.41582,0 4.41582,-5.164108"
       id="path12"
       inkscape:connector-curvature="0" />
  </g>
  <g
     style="fill:#3771c8"
     transform="matrix(1.1930667,0,0,0.83817611,-381.62546,188.59122)"
     id="g14">
    <path
       d="m 245.25022,-170.55073 c -0.28306,-1.0615 -0.89638,-1.67481 -1.9107,-1.67481 -1.01432,0 -1.81635,0.68408 -1.81635,1.79276 0,0.18871 0.0472,0.44819 0.11795,0.68407 l 3.34962,9.97812 c 0.30666,0.87278 0.89638,1.32097 1.81635,1.32097 0.96714,0 1.60405,-0.44819 1.9107,-1.32097 l 3.39681,-9.93094 c 0.11794,-0.23589 0.14153,-0.51895 0.14153,-0.73125 0,-1.17945 -0.70767,-1.79276 -1.76917,-1.79276 -0.89638,0 -1.53328,0.51896 -1.93429,1.60404 l -1.62764,6.43978 -1.67481,-6.36901"
       id="path16"
       inkscape:connector-curvature="0" />
    <path
       d="m 257.77372,-176.09412 c -1.20303,0 -1.98146,0.66049 -2.19376,1.72199 -1.08509,5.56698 -1.10868,5.9444 -1.10868,6.06235 0,1.41533 0.82561,1.81634 1.88711,1.81634 0.70767,0 1.32098,-0.35383 2.09941,-0.35383 1.60405,0 2.38248,1.2738 2.38248,2.50043 0,1.25021 -0.91997,2.47683 -2.3353,2.47683 -0.82561,0 -1.81635,-0.4246 -2.28812,-1.03791 -0.37743,-0.51896 -0.96715,-0.80202 -1.48611,-0.80202 -0.87278,0 -1.72199,0.6369 -1.72199,1.81634 0,1.58046 2.3589,3.70346 5.40186,3.70346 4.15165,0 6.22748,-3.23168 6.22748,-6.34542 0,-3.01937 -1.9343,-5.9444 -6.10953,-5.9444 0.16512,-0.96715 0.2123,-1.2738 0.28307,-1.81635 l 3.91576,0 c 1.25021,0 1.83993,-0.61331 1.83993,-1.83993 0,-1.0615 -0.68408,-1.95788 -1.83993,-1.95788 l -4.95368,0"
       id="path18"
       inkscape:connector-curvature="0" />
    <path
       d="m 266.09545,-160.54903 c 0,1.17945 0.94356,2.09941 2.09941,2.09941 1.20304,0 2.12301,-0.91996 2.12301,-2.09941 0,-1.17944 -0.91997,-2.09941 -2.12301,-2.09941 -1.15585,0 -2.09941,0.91997 -2.09941,2.09941"
       id="path20"
       inkscape:connector-curvature="0" />
    <path
       d="m 277.72442,-176.66026 c -4.62342,0 -6.22748,5.44905 -6.22748,9.29403 0,3.96294 1.53329,9.17609 6.27466,9.17609 4.55265,0 6.18029,-5.44904 6.18029,-9.22326 0,-3.86858 -1.50969,-9.24686 -6.13312,-9.24686 l -0.0943,0 m 0.0472,14.74307 c -1.76917,0 -2.40607,-3.27886 -2.40607,-5.42545 0,-1.98146 0.49537,-5.54339 2.42966,-5.54339 1.72198,0 2.3353,3.34963 2.3353,5.59057 0,1.88711 -0.61332,5.37827 -2.35889,5.37827"
       id="path22"
       inkscape:connector-curvature="0" />
  </g>
  <g
     style="fill:#3771c8"
     transform="matrix(1.0950814,0,0,0.91317413,-227.92483,188.59122)"
     id="g24">
    <path
       d="m 265.34737,-189.9426 c -6.71792,0 -11.18383,6.48892 -11.18383,13.20685 0,5.30563 2.86277,9.96238 8.77912,9.96238 7.06145,0 11.18383,-6.25989 11.18383,-12.93965 0,-5.30563 -2.86276,-10.22958 -8.77912,-10.22958 m -0.57255,5.42015 c 2.40471,0 3.28263,3.05361 3.28263,5.611 0,2.48105 -1.25962,6.79427 -4.58041,6.79427 -2.36654,0 -3.24446,-2.90092 -3.24446,-5.42014 0,-2.40472 1.25962,-6.98513 4.54224,-6.98513"
       id="path26"
       inkscape:connector-curvature="0" />
    <path
       d="m 277.21409,-186.20193 c -1.71765,16.33677 -1.71765,16.52764 -1.71765,16.71849 0,1.56497 0.91608,2.36654 2.6719,2.36654 2.02301,0 3.05361,-0.99242 3.24446,-2.93909 l 1.10693,-10.64945 c 0.19085,-1.67948 1.98484,-2.86275 3.4353,-2.86275 0.68706,0 1.37413,0.22902 2.25204,0.22902 1.75582,0 3.35896,-1.52681 3.35896,-3.35897 0,-1.45046 -1.06876,-2.86275 -3.89334,-2.86275 -1.60315,0 -4.23688,1.56497 -5.00028,2.82458 l 0,-0.19085 c 0,-1.67948 -1.06877,-2.32837 -2.21387,-2.32837 -1.94667,0 -3.01543,0.99242 -3.24445,3.0536"
       id="path28"
       inkscape:connector-curvature="0" />
    <path
       d="m 301.43001,-190.01894 c -6.75609,0 -11.222,6.83245 -11.222,13.28319 0,5.57282 3.16812,10.03872 9.3135,10.03872 3.51164,0 6.48891,-1.29778 8.62643,-3.66432 0.57255,-0.53438 0.7634,-1.06877 0.83974,-1.75583 0,-1.22144 -0.30536,-2.51922 -1.9085,-2.51922 -2.02301,0 -3.47348,2.36654 -6.41257,2.36654 -1.56497,0 -4.61858,-1.06876 -4.61858,-4.12236 0,-0.15268 0.0382,-0.34353 0.0382,-0.49621 l 8.74095,0 c 2.93909,0 4.73308,-1e-5 5.03844,-2.9391 0.0763,-0.53438 0.0763,-1.06876 0.0763,-1.56497 0,-5.07661 -2.9391,-8.62644 -8.51192,-8.62644 m -4.61858,9.16082 c 0.26719,-2.36654 2.32838,-3.62616 4.0842,-3.62616 1.56497,0 3.01543,0.99243 3.01543,3.09178 0,0.15268 0,0.34353 -0.0382,0.53438 l -7.06146,0"
       id="path30"
       inkscape:connector-curvature="0" />
  </g>
  <text
     xml:space="preserve"
     style="font-size:21.28661156px;font-style:normal;font-variant:normal;font-weight:bold;font-stretch:normal;line-height:125%;letter-spacing:0.25999999px;word-spacing:0px;fill:#3771c8;fill-opacity:1;stroke:none;font-family:'Porky\'s';-inkscape-font-specification:'Porky\'s Bold'"
     x="64.872398"
     y="55.212395"
     id="text3013"
     sodipodi:linespacing="125%"><tspan
       sodipodi:role="line"
       id="tspan3015"
       x="64.872398"
       y="55.212395"
       dx="0 0.77999997">v6.0</tspan></text>
</svg>
